# File created by Blade
# Date/Time:  Thu Jan 22 16:04:59 2015
# Frame Rate: 120.000 fps
#------------------------------------------------------
:FULLY-SPECIFIED
:DEGREES
955
root 3.546194 36.858828 5.992778 0.211790 22.798906 6.187000
RightUpLeg 17.539403 -19.403800 -13.265350
RightLeg -6.167329 -0.000000 0.000000
RightFoot -15.345773 -20.965824 21.311902
RightToeBase 9.455019 -0.000000 -0.000000
LeftUpLeg -0.871771 -18.050422 3.502077
LeftLeg 3.026737 -0.000000 -0.000000
LeftFoot -2.119069 1.284493 -21.953411
LeftToeBase 1.394782 -0.000000 -0.000000
Spine 8.456341 29.020281 4.647844
RightShoulder 11.387369 -4.264147 -36.871919
RightArm 86.816798 -6.494072 21.609724
RightForeArm -13.753106 -0.000000 98.232132
RightHand 12.387866 -0.000000 -6.101338
RightHandThumb1 -24.326973 -0.000000 -32.862282
LeftShoulder -39.160417 38.963410 -2.893674
LeftArm 32.558557 -32.082338 -62.834038
LeftForeArm 27.372208 0.000000 7.289075
LeftHand -28.683931 -0.000000 7.552980
LeftHandThumb1 -26.253704 0.000000 33.147579
Head 8.623459 0.136611 -12.916157
956
root 3.548125 36.861352 5.995955 0.050238 22.171874 6.115502
RightUpLeg 17.469257 -19.009726 -13.245228
RightLeg -6.144149 -0.000000 0.000000
RightFoot -15.233635 -20.753556 21.232327
RightToeBase 9.396462 -0.000000 -0.000000
LeftUpLeg -0.567903 -17.606286 3.486551
LeftLeg 2.935026 -0.000000 -0.000000
LeftFoot -2.207044 1.414477 -21.891648
LeftToeBase 1.389471 -0.000000 -0.000000
Spine 8.470442 28.754526 4.614186
RightShoulder 11.430580 -4.382677 -36.865766
RightArm 86.469333 -6.508957 21.573885
RightForeArm -13.646274 -0.000000 97.784457
RightHand 12.202040 -0.000000 -6.159210
RightHandThumb1 -24.326973 -0.000000 -32.862282
LeftShoulder -39.116774 38.954518 -2.872672
LeftArm 32.877952 -32.075220 -62.808205
LeftForeArm 27.297911 -0.000000 7.337277
LeftHand -28.603779 -0.000000 7.182056
LeftHandThumb1 -26.253704 0.000000 33.147579
Head 8.561380 -0.192022 -12.843413
957
root 3.543786 36.863829 5.997677 -0.084783 21.574865 6.023958
RightUpLeg 17.376661 -18.655890 -13.192230
RightLeg -6.130075 -0.000000 0.000000
RightFoot -15.122785 -20.520286 21.189544
RightToeBase 9.441772 -0.000000 -0.000000
LeftUpLeg -0.323296 -17.166514 3.512771
LeftLeg 2.873802 -0.000000 -0.000000
LeftFoot -2.317945 1.527568 -21.906167
LeftToeBase 1.427548 -0.000000 -0.000000
Spine 8.445434 28.454072 4.564289
RightShoulder 11.443145 -4.396352 -36.806152
RightArm 86.098351 -6.634607 21.547659
RightForeArm -13.623630 -0.000000 97.295491
RightHand 12.112125 -0.000000 -6.293128
RightHandThumb1 -24.326973 -0.000000 -32.862282
LeftShoulder -39.059610 38.885640 -2.810704
LeftArm 33.095019 -32.021364 -62.720599
LeftForeArm 27.335741 -0.000000 7.421336
LeftHand -28.510440 -0.000000 7.027337
LeftHandThumb1 -26.253704 0.000000 33.147579
Head 8.479956 -0.534613 -12.763130
958
root 3.543515 36.867540 6.000225 -0.239705 20.946762 5.933601
RightUpLeg 17.286947 -18.333724 -13.152604
RightLeg -6.095933 -0.000000 0.000000
RightFoot -14.978646 -20.292623 21.068934
RightToeBase 9.401511 -0.000000 -0.000000
LeftUpLeg -0.041449 -16.649115 3.516906
LeftLeg 2.796563 -0.000000 -0.000000
LeftFoot -2.434440 1.654466 -21.962991
LeftToeBase 1.573039 -0.000000 -0.000000
Spine 8.449628 28.215387 4.557034
RightShoulder 11.449201 -4.511065 -36.783276
RightArm 85.733958 -6.691329 21.532693
RightForeArm -13.258879 0.000000 96.807339
RightHand 12.042724 -0.000000 -6.327389
RightHandThumb1 -24.326973 -0.000000 -32.862282
LeftShoulder -39.016157 38.909908 -2.838060
LeftArm 33.463988 -32.068746 -62.717282
LeftForeArm 27.387036 -0.000000 7.474227
LeftHand -28.434943 -0.000000 6.819551
LeftHandThumb1 -26.253704 0.000000 33.147579
Head 8.384475 -0.760500 -12.609314
959
root 3.539926 36.870703 6.001168 -0.373797 20.309728 5.842223
RightUpLeg 17.158685 -17.963539 -13.091764
RightLeg -6.039572 -0.000000 0.000000
RightFoot -14.898461 -20.075735 21.016846
RightToeBase 9.453589 -0.000000 -0.000000
LeftUpLeg 0.216493 -16.181073 3.557810
LeftLeg 2.721524 -0.000000 -0.000000
LeftFoot -2.495977 1.727193 -21.906432
LeftToeBase 1.467897 -0.000000 -0.000000
Spine 8.425115 27.915205 4.538838
RightShoulder 11.533615 -4.681390 -36.783323
RightArm 85.396264 -6.667557 21.518762
RightForeArm -13.185574 0.000000 96.314905
RightHand 11.849200 -0.000000 -6.341824
RightHandThumb1 -24.326973 -0.000000 -32.862282
LeftShoulder -39.007895 38.876566 -2.892881
LeftArm 33.686299 -32.030698 -62.573990
LeftForeArm 27.283213 -0.000000 7.578150
LeftHand -28.464238 -0.000000 6.625208
LeftHandThumb1 -26.253704 0.000000 33.147579
Head 8.304241 -0.893442 -12.536086
960
root 3.537894 36.873505 5.997622 -0.479406 19.675311 5.747141
RightUpLeg 16.997175 -17.597807 -13.019976
RightLeg -5.987879 -0.000000 0.000000
RightFoot -14.773727 -19.843862 20.935177
RightToeBase 9.426368 -0.000000 -0.000000
LeftUpLeg 0.431296 -15.668189 3.593479
LeftLeg 2.655868 -0.000000 -0.000000
LeftFoot -2.602393 1.836161 -21.976987
LeftToeBase 1.594423 -0.000000 -0.000000
Spine 8.400387 27.680123 4.509073
RightShoulder 11.467608 -4.796341 -36.712372
RightArm 85.111714 -6.724951 21.484539
RightForeArm -12.995714 -0.000000 95.817845
RightHand 11.797566 -0.000000 -6.378496
RightHandThumb1 -24.326973 -0.000000 -32.862282
LeftShoulder -38.971848 38.776963 -2.881849
LeftArm 33.879969 -31.939987 -62.390237
LeftForeArm 27.359745 0.000000 7.669285
LeftHand -28.295047 -0.000000 6.809197
LeftHandThumb1 -26.253704 0.000000 33.147579
Head 8.142877 -1.150332 -12.443362
961
root 3.536354 36.876770 5.998574 -0.631919 18.989219 5.640978
RightUpLeg 16.878221 -17.205672 -12.951831
RightLeg -5.952051 -0.000000 0.000000
RightFoot -14.593570 -19.622869 20.789142
RightToeBase 9.347947 -0.000000 -0.000000
LeftUpLeg 0.725488 -15.163555 3.638131
LeftLeg 2.565901 -0.000000 -0.000000
LeftFoot -2.698966 1.940836 -21.908508
LeftToeBase 1.574847 -0.000000 -0.000000
Spine 8.410820 27.420969 4.527912
RightShoulder 11.533498 -4.957802 -36.702711
RightArm 84.805539 -6.714623 21.440569
RightForeArm -12.710822 0.000000 95.294363
RightHand 11.628741 -0.000000 -6.619750
RightHandThumb1 -24.326973 -0.000000 -32.862282
LeftShoulder -39.047734 38.764722 -2.970121
LeftArm 34.367348 -32.200168 -62.581205
LeftForeArm 27.708107 -0.000000 7.650151
LeftHand -28.226983 0.000000 6.590220
LeftHandThumb1 -26.253704 0.000000 33.147579
Head 8.044291 -1.289470 -12.390282
962
root 3.534444 36.877690 5.996730 -0.720172 18.365166 5.540980
RightUpLeg 16.713632 -16.857426 -12.871583
RightLeg -5.909119 -0.000000 0.000000
RightFoot -14.485158 -19.392671 20.708429
RightToeBase 9.434838 -0.000000 -0.000000
LeftUpLeg 0.926901 -14.675476 3.686648
LeftLeg 2.501813 -0.000000 -0.000000
LeftFoot -2.855681 2.078458 -22.034040
LeftToeBase 1.723217 -0.000000 -0.000000
Spine 8.350388 27.191604 4.449098
RightShoulder 11.434573 -4.998967 -36.552090
RightArm 84.476325 -6.861250 21.423261
RightForeArm -12.309217 -0.000000 94.803416
RightHand 11.823361 -0.000000 -6.668365
RightHandThumb1 -24.326973 -0.000000 -32.862282
LeftShoulder -39.075400 38.732306 -2.913610
LeftArm 34.760473 -32.285424 -62.720920
LeftForeArm 27.891894 -0.000000 7.769125
LeftHand -28.282428 -0.000000 6.275212
LeftHandThumb1 -26.253704 0.000000 33.147579
Head 7.851539 -1.682438 -12.299576
963
root 3.534301 36.880383 5.999345 -0.813268 17.699030 5.435270
RightUpLeg 16.559619 -16.493722 -12.794451
RightLeg -5.884785 -0.000000 0.000000
RightFoot -14.388958 -19.084839 20.698512
RightToeBase 9.544074 -0.000000 -0.000000
LeftUpLeg 1.166173 -14.146691 3.751765
LeftLeg 2.393400 -0.000000 -0.000000
LeftFoot -2.931005 2.150489 -22.007270
LeftToeBase 1.722586 -0.000000 -0.000000
Spine 8.293958 27.014135 4.397159
RightShoulder 11.323463 -5.099081 -36.429865
RightArm 84.156914 -6.994365 21.392925
RightForeArm -12.147759 -0.000000 94.309743
RightHand 11.702020 -0.000000 -6.839699
RightHandThumb1 -24.326973 -0.000000 -32.862282
LeftShoulder -38.983116 38.601647 -2.791281
LeftArm 34.854363 -32.169035 -62.523431
LeftForeArm 27.814109 -0.000000 7.851825
LeftHand -28.035073 -0.000000 6.528357
LeftHandThumb1 -26.253704 0.000000 33.147579
Head 7.642504 -1.734733 -12.052233
964
root 3.534853 36.883427 5.996675 -0.965852 17.015425 5.311414
RightUpLeg 16.428522 -16.077041 -12.702140
RightLeg -5.830891 -0.000000 0.000000
RightFoot -14.265493 -18.859628 20.654526
RightToeBase 9.524060 -0.000000 -0.000000
LeftUpLeg 1.445285 -13.630131 3.824741
LeftLeg 2.324570 -0.000000 -0.000000
LeftFoot -3.023704 2.216971 -21.945486
LeftToeBase 1.647727 -0.000000 -0.000000
Spine 8.350444 27.140360 4.475125
RightShoulder 10.947020 -5.497160 -36.284563
RightArm 83.861239 -6.993372 21.375739
RightForeArm -11.653282 -0.000000 93.854292
RightHand 11.389099 0.000000 -6.477303
RightHandThumb1 -24.326973 -0.000000 -32.862282
LeftShoulder -38.550980 38.584379 -2.486892
LeftArm 35.138362 -32.150477 -62.566422
LeftForeArm 27.839752 -0.000000 7.924988
LeftHand -28.034939 -0.000000 6.436828
LeftHandThumb1 -26.253704 0.000000 33.147579
Head 7.536496 -2.179590 -11.883530
965
root 3.537319 36.886876 5.993529 -1.078785 16.361067 5.209714
RightUpLeg 16.282161 -15.708591 -12.630958
RightLeg -5.787383 -0.000000 0.000000
RightFoot -14.142588 -18.620150 20.615532
RightToeBase 9.577810 -0.000000 -0.000000
LeftUpLeg 1.685454 -13.132437 3.872906
LeftLeg 2.258591 -0.000000 -0.000000
LeftFoot -3.150265 2.347221 -21.992343
LeftToeBase 1.755313 -0.000000 -0.000000
Spine 8.328280 26.941383 4.487780
RightShoulder 10.880607 -5.792627 -36.149643
RightArm 83.593998 -6.902587 21.257596
RightForeArm -11.498111 -0.000000 93.272174
RightHand 11.554812 -0.000000 -6.656845
RightHandThumb1 -24.326973 -0.000000 -32.862282
LeftShoulder -38.352915 38.611667 -2.387663
LeftArm 35.299108 -32.282328 -62.637377
LeftForeArm 27.871112 -0.000000 8.048335
LeftHand -27.863553 -0.000000 6.626583
LeftHandThumb1 -26.253704 0.000000 33.147579
Head 7.415380 -2.149670 -11.716519
